HIERARCHY
ROOT Hips
{
	OFFSET 0.00000 0.00000 0.00000
	CHANNELS 6 Xposition Yposition Zposition Yrotation Zrotation Xrotation 
	JOINT Lumbar
	{
		OFFSET 0 0 0
		CHANNELS 3 Zrotation Xrotation Yrotation
		JOINT Neck
		{
			OFFSET 0.00 0.2701 0.00
			CHANNELS 3 Zrotation Xrotation Yrotation
			End Site
			{
				OFFSET 0.00 0.1379 0.00
			}
		}
		JOINT RightShoulder
		{
			OFFSET 0.0119 0.2289 0.1181
			CHANNELS 3 Zrotation Xrotation Yrotation
			JOINT RightElbow
			{
				OFFSET 0.00 -0.1475 0.00
				CHANNELS 2 Zrotation Yrotation
				JOINT RightWrist
				{
					OFFSET 0.00 -0.1605 0.00
					CHANNELS 2 Zrotation Xrotation
					End Site
					{
						OFFSET 0.0040 -0.1068 0.0006
					}
				}
			}
		}
		JOINT LeftShoulder
		{
			OFFSET 0.0119 0.2289 -0.1181
			CHANNELS 3 Zrotation Xrotation Yrotation
			JOINT LeftElbow
			{
				OFFSET 0.00 -0.1475 0.00
				CHANNELS 2 Zrotation Yrotation
				JOINT LeftWrist
				{
					OFFSET 0.00 -0.1605 0.00
					CHANNELS 2 Zrotation Xrotation
					End Site
					{
						OFFSET 0.0040 -0.1068 -0.0006
					}
				}
			}
		}
	}
	JOINT RightHip
	{
		OFFSET 0.0316 -0.0424 0.0458
		CHANNELS 3 Zrotation Xrotation Yrotation
		JOINT RightKnee
		{
			OFFSET 0.00 -0.2438 0.00
			CHANNELS 1 Zrotation
			JOINT RightAnkle
			{
				OFFSET 0.00 -0.2449 0.00
				CHANNELS 3 Zrotation Xrotation Yrotation
				End Site
				{
					OFFSET 0.1237 -0.0542 0.0051
				}
			}
		}
	}
	JOINT LeftHip
	{
		OFFSET 0.0316 -0.0424 -0.0458
		CHANNELS 3 Zrotation Xrotation Yrotation
		JOINT LeftKnee
		{
			OFFSET 0.00 -0.2438 0.00
			CHANNELS 1 Zrotation
			JOINT LeftAnkle
			{
				OFFSET 0.00 -0.2449 0.00
				CHANNELS 3 Zrotation Xrotation Yrotation
				End Site
				{
					OFFSET 0.1237 -0.0542 -0.0051
				}
			}
		}
	}
}
MOTION
Frames: 20
Frame Time: 0.02
0 0.57926 0 185.98369 0 -2.44431 5.55651 5.04755 1.77034 -18.24084 -8.94023 -6.21368 36.56175 0.09841 9.89612 12.52134 83.92617 -3.81145 -5.75357 41.92811 17.65685 -20.30336 20.83981 -89.13857 -12.29831 6.18931 -5.06098 6.99319 6.63076 -4.26408 1.93529 -4.12188 -5.71956 -0.33684 0.81305 -22.90983 -7.48154 4.3796 4.90979 6.71582
4e-05 0.57924 -0.00045 186.25937 0 -2.40473 5.57542 5.06351 1.7406 -18.40691 -8.81139 -6.18843 36.7084 0.20021 10.38242 12.50953 83.85602 -3.79345 -5.85752 41.70925 17.57011 -20.39106 20.93277 -89.96347 -12.24314 6.39608 -5.08515 7.01311 6.41383 -4.23633 1.95865 -4.13557 -5.73858 -0.24581 0.78273 -23.18243 -7.59318 4.37002 4.92489 6.76787
7e-05 0.57921 -0.0009 186.53316 0 -2.36536 5.59394 5.07971 1.71157 -18.57213 -8.68233 -6.16218 36.84744 0.29911 10.85897 12.4956 83.78564 -3.77457 -5.95885 41.48255 17.48423 -20.47078 21.01949 -90.77447 -12.1851 6.59845 -5.10938 7.03316 6.20216 -4.20872 1.98227 -4.14823 -5.76119 -0.15535 0.75268 -23.45291 -7.70452 4.36107 4.94013 6.81933
0.0001 0.57919 -0.00135 186.80195 0 -2.32596 5.61125 5.09613 1.68538 -18.73534 -8.55113 -6.13144 36.96466 0.38799 11.31146 12.47572 83.71411 -3.75222 -6.05154 41.23211 17.40029 -20.53564 21.08871 -91.5404 -12.11625 6.78685 -5.13352 7.05266 5.99127 -4.18166 2.00673 -4.16184 -5.78011 -0.06686 0.72298 -23.71964 -7.81406 4.35315 4.95532 6.87106
0.00015 0.57917 -0.00181 187.0971 0 -2.28612 5.63517 5.11029 1.64446 -18.90893 -8.43128 -6.1242 37.20618 0.53065 11.90386 12.49054 83.64933 -3.74851 -6.19102 41.11919 17.3053 -20.6993 21.25847 -92.54807 -12.10606 7.05118 -5.15746 7.07359 5.75484 -4.15198 2.02624 -4.17629 -5.79706 0.03139 0.69091 -24.0087 -7.93112 4.33814 4.9699 6.92389
0.00014 0.57913 -0.00225 187.33626 0 -2.24765 5.64492 5.12994 1.63455 -19.0606 -8.28751 -6.06743 37.17867 0.55893 12.19126 12.42979 83.56984 -3.7052 -6.23068 40.70754 17.23429 -20.64008 21.21012 -93.0414 -11.97087 7.15337 -5.18225 7.09246 5.58713 -4.12765 2.05655 -4.18496 -5.83268 0.10938 0.66422 -24.24859 -8.03354 4.33922 4.98631 6.97265
-5e-05 0.57902 -0.00266 187.42115 0 -2.20828 5.61584 5.1595 1.71474 -19.15207 -8.07195 -5.86604 36.42892 0.26493 11.68078 12.16916 83.44855 -3.54893 -5.99129 39.49557 17.22569 -20.0452 20.58104 -92.0925 -11.48277 6.80508 -5.20622 7.09726 5.48054 -4.12003 2.11549 -4.2134 -5.79152 0.12702 0.6492 -24.36911 -8.08441 4.37673 5.0034 7.02606
-0.00031 0.57889 -0.00305 187.4495 0 -2.1709 5.57241 5.19541 1.82551 -19.22153 -7.83331 -5.61596 35.40276 -0.14335 10.85118 11.83039 83.3114 -3.35324 -5.65136 37.97601 17.24195 -19.20253 19.72759 -90.62723 -10.86995 6.29341 -5.23159 7.10112 5.46065 -4.11757 2.18557 -4.23125 -5.7866 0.12468 0.64006 -24.43767 -8.12196 4.43163 5.0229 7.07311
-0.00055 0.57878 -0.00345 187.50362 0 -2.13585 5.53524 5.23212 1.91947 -19.30084 -7.60838 -5.39283 34.48882 -0.49598 10.14114 11.52121 83.18348 -3.17766 -5.35942 36.57974 17.2494 -18.42991 18.96124 -89.41125 -10.31778 5.85751 -5.25852 7.11137 5.49257 -4.11129 2.25152 -4.22845 -5.85646 0.13482 0.63042 -24.51878 -8.17373 4.48427 5.04452 7.11198
-0.00075 0.57866 -0.00387 187.55757 0 -2.08798 5.499 5.25405 2.02568 -19.38044 -7.36889 -5.14894 33.63222 -0.86563 9.54876 11.23679 83.05145 -2.99262 -5.05823 35.2538 17.24657 -17.86743 18.25562 -88.13392 -9.74644 5.41435 -5.2765 7.0981 5.16498 -4.11066 2.31381 -4.32579 -5.56655 0.13208 0.61209 -24.64428 -8.19365 4.51454 5.05366 7.19502
-0.00104 0.57853 -0.00425 187.59821 0 -2.06623 5.45765 5.3073 2.11369 -19.45467 -7.15551 -4.93727 32.58962 -1.22526 8.62279 10.88257 82.91869 -2.81821 -4.75187 33.70761 17.27077 -16.7702 17.37284 -86.86135 -9.18853 4.94863 -5.31302 7.13155 5.57487 -4.1002 2.38603 -4.22125 -6.00273 0.14956 0.61267 -24.66786 -8.27345 4.59372 5.08798 7.18773
-0.00153 0.57842 -0.00453 187.61783 0 -2.12523 5.40338 5.45399 2.14382 -19.51554 -7.00912 -4.82166 31.1089 -1.54358 6.95693 10.35237 82.83598 -2.68034 -4.46084 31.63453 17.36617 -14.58846 16.03397 -85.7329 -8.67122 4.45141 -5.40418 7.31191 8.27921 -4.05507 2.48576 -3.48108 -8.71362 0.24385 0.66903 -24.39725 -8.55047 4.81939 5.2036 6.90479
-0.0021 0.5783 -0.00478 187.6255 0 -2.20887 5.34484 5.63053 2.1548 -19.57251 -6.8919 -4.741 29.44941 -1.84497 4.94339 9.75554 82.74476 -2.55518 -4.16737 29.34992 17.48744 -11.8189 14.52942 -84.62733 -8.17686 3.9392 -5.51332 7.53624 11.67462 -4.00082 2.59451 -2.55192 -12.10581 0.35637 0.74336 -24.03013 -8.88323 5.09091 5.34243 6.536
-0.00265 0.57819 -0.00505 187.63759 0 -2.27508 5.28986 5.78764 2.17441 -19.63382 -6.76826 -4.64757 27.86613 -2.14502 3.02606 9.19011 82.62501 -2.42557 -3.87142 27.15736 17.59516 -9.09639 13.11397 -83.50672 -7.6895 3.43939 -5.6116 7.72854 14.56533 -3.95519 2.69738 -1.76391 -14.99843 0.44971 0.80609 -23.72451 -9.17121 5.33096 5.46224 6.22516
-0.00315 0.57806 -0.00531 187.6526 0 -2.36716 5.22777 5.96915 2.19462 -19.68348 -6.61461 -4.5395 26.29296 -2.48815 1.37367 8.61522 82.63873 -2.28817 -3.58614 24.96864 17.7113 -7.27925 11.62909 -82.3829 -7.12371 2.9088 -5.72089 7.97068 18.24727 -3.89182 2.80843 -0.74753 -18.67836 0.5875 0.88319 -23.34457 -9.5393 5.61586 5.61689 5.83559
-0.00377 0.57796 -0.00557 187.65865 0 -2.41184 5.17937 6.10758 2.20962 -19.75682 -6.53112 -4.4706 24.66174 -2.73485 -0.92799 8.04776 82.3761 -2.17156 -3.28057 22.72903 17.81574 -3.45901 10.25655 -81.28397 -6.729 2.44275 -5.81202 8.12069 20.46508 -3.86196 2.90408 -0.15541 -20.8997 0.63834 0.93498 -23.09473 -9.75589 5.8188 5.70572 5.58793
-0.00471 0.57788 -0.00585 187.64997 0 -2.31387 5.17228 6.11358 2.20627 -19.89574 -6.63078 -4.50392 22.90055 -2.72931 -4.76858 7.49583 81.32394 -2.10089 -2.91018 20.37446 17.88157 5.89847 9.20027 -80.19553 -6.7962 2.14213 -5.84375 7.99512 18.28891 -3.93744 2.958 -0.83886 -18.75332 0.43578 0.90856 -23.24945 -9.52393 5.77719 5.59605 5.76867
-0.00576 0.57782 -0.00613 187.63173 0 -2.16841 5.17863 6.07639 2.19983 -20.05863 -6.80082 -4.57523 21.09182 -2.62509 -9.27667 6.95798 80.00031 -2.05258 -2.52197 17.98318 17.93471 17.2124 8.27029 -79.14135 -7.03617 1.90999 -5.85735 7.77725 14.64808 -4.04512 2.99546 -1.94538 -15.14693 0.14694 0.85669 -23.53491 -9.14084 5.6527 5.42131 6.0925
-0.00675 0.57775 -0.00641 187.61342 0 -2.04845 5.1774 6.06294 2.20028 -20.21144 -6.94097 -4.6277 19.31399 -2.55871 -13.59317 6.42814 78.81855 -1.99957 -2.14827 15.62647 17.99341 27.54369 7.30629 -78.11174 -7.2011 1.65922 -5.88261 7.60853 11.79778 -4.13095 3.03846 -2.81993 -12.32348 -0.09665 0.81906 -23.74622 -8.83776 5.5707 5.28373 6.34046
-0.00778 0.57767 -0.00667 187.61298 0 -1.91283 5.18263 6.03297 2.1768 -20.36162 -7.07315 -4.68798 17.48712 -2.52052 -17.46596 5.8354 77.5545 -1.92346 -1.74631 13.18351 18.05349 38.33119 6.23787 -76.92319 -7.35274 1.35866 -5.89462 7.41104 8.44789 -4.24636 3.09007 -3.85416 -9.02287 -0.36559 0.77096 -24.01525 -8.4884 5.47009 5.1153 6.6305
